<svg xmlns="http://www.w3.org/2000/svg" viewBox="0 0 127.455 127.455" style="enable-background:new 0 0 127.455 127.455" xml:space="preserve"><path style="fill:#d60909" d="M94.2 8.35c-13.829 0-25.968 7.763-30.237 19.287a2.054 2.054 0 0 1-.236.465 2.235 2.235 0 0 1-.237-.465C59.227 16.112 47.084 8.35 33.246 8.35 15.751 8.35 1.5 20.897 1.5 36.307c0 5.605 1.857 11.021 5.409 15.633a.301.301 0 0 1 .056.082c.113.129.209.211.295.291l56.467 66.793 56.463-66.793c.092-.08.188-.162.304-.291 0 0 .017-.051.052-.082 3.556-4.611 5.41-10.027 5.41-15.633C125.955 20.897 111.704 8.35 94.2 8.35z"/><path style="fill:#ff1a1a" d="M63.489 27.637C59.227 16.112 47.084 8.35 33.246 8.35 15.751 8.35 1.5 20.897 1.5 36.307c0 5.605 1.857 11.021 5.409 15.633a.301.301 0 0 1 .056.082c.113.129.209.211.295.291l56.467 66.793V28.102a2.288 2.288 0 0 1-.238-.465z"/><circle style="fill:#36c6ff" cx="63.727" cy="64.783" r="21.931"/><ellipse style="fill:#0086ff" cx="63.727" cy="64.783" rx="21.931" ry="16.799"/><path style="fill:#fff" d="M41.796 64.783c0 12.113 9.819 21.932 21.931 21.932s21.931-9.818 21.931-21.932H41.796z"/><path style="fill:#d8e5ea" d="M63.727 81.582c12.112 0 21.931-7.521 21.931-16.799H41.796c0 9.278 9.819 16.799 21.931 16.799z"/><path style="fill:#33363a" d="M94.2 6.85c-13.329 0-25.192 6.943-30.473 17.561C58.459 13.797 46.59 6.85 33.246 6.85 14.914 6.85 0 20.064 0 36.307c0 5.956 1.971 11.667 5.7 16.521.041.065.087.126.138.185.116.131.218.23.336.34l56.407 66.722a1.501 1.501 0 0 0 2.292 0l56.391-66.708a4.31 4.31 0 0 0 .344-.34c.063-.07.119-.146.167-.225 3.716-4.843 5.68-10.545 5.68-16.494 0-16.244-14.918-29.458-33.255-29.458zm25.157 44.173.002.001-.041.055c-.038.036-.074.066-.114.102a1.44 1.44 0 0 0-.16.162l-53.78 63.62v-7.873a1.5 1.5 0 1 0-3 0v7.961L8.405 51.344a2.604 2.604 0 0 0-.181-.183 1.544 1.544 0 0 1-.087-.082l-.041-.054.001-.001C4.763 46.694 3 41.605 3 36.307 3 21.718 16.568 9.85 33.246 9.85c13.198 0 24.786 7.357 28.833 18.3.051.141.113.278.184.415v8.543a1.5 1.5 0 1 0 3 0v-8.743c.031-.071.08-.134.106-.207C69.426 17.207 81.013 9.85 94.2 9.85c16.683 0 30.255 11.869 30.255 26.457 0 5.302-1.763 10.391-5.098 14.716z"/><path style="fill:#33363a" d="M65.248 41.408a1.495 1.495 0 0 0-1.484-1.344c-.773 0-1.402.587-1.484 1.338-12.248.75-21.984 10.948-21.984 23.381 0 12.429 9.727 22.623 21.968 23.381v8.02a1.5 1.5 0 1 0 3 0v-8.026c12.205-.795 21.894-10.972 21.894-23.376-.001-12.406-9.697-22.587-21.91-23.374zm-1.521 43.807c-10.759 0-19.582-8.366-20.355-18.932h40.709c-.773 10.566-9.595 18.932-20.354 18.932zM43.372 63.283c.762-10.406 9.336-18.66 19.875-18.906.162.06.334.097.516.097.179 0 .348-.037.506-.094 10.509.279 19.051 8.519 19.811 18.903H43.372zM63.764 99.448a1.5 1.5 0 0 0-1.5 1.5v1.409a1.5 1.5 0 1 0 3 0v-1.409a1.5 1.5 0 0 0-1.5-1.5z"/><circle style="fill:#a7bbc1" cx="63.727" cy="67.296" r="7.251"/><circle style="fill:#fff" cx="63.727" cy="64.831" r="7.251"/><path style="fill:#d8e5ea" d="M58.6 69.959a7.252 7.252 0 0 1 10.254-10.256"/><path style="fill:#33363a" d="M63.727 73.577a8.728 8.728 0 0 1-6.188-2.557c-3.413-3.413-3.413-8.965 0-12.377 1.653-1.653 3.851-2.563 6.188-2.563s4.534.91 6.187 2.563c1.653 1.653 2.563 3.851 2.563 6.188s-.911 4.536-2.564 6.189a8.72 8.72 0 0 1-6.186 2.557zm0-14.498c-1.536 0-2.98.598-4.067 1.685a5.759 5.759 0 0 0 0 8.135 5.76 5.76 0 0 0 8.133 0c1.087-1.086 1.685-2.531 1.685-4.067s-.598-2.981-1.685-4.067a5.706 5.706 0 0 0-4.066-1.686z"/></svg>